<svg width="15" height="15" viewBox="0 0 15 15" fill="none" xmlns="http://www.w3.org/2000/svg">
<path fill-rule="evenodd" clip-rule="evenodd" d="M13.9 0.500098C13.9 0.279184 13.7209 0.100098 13.5 0.100098C13.2791 0.100098 13.1 0.279184 13.1 0.500098V1.1001H12.5C12.2791 1.1001 12.1 1.27918 12.1 1.5001C12.1 1.72101 12.2791 1.9001 12.5 1.9001H13.1V2.5001C13.1 2.72101 13.2791 2.9001 13.5 2.9001C13.7209 2.9001 13.9 2.72101 13.9 2.5001V1.9001H14.5C14.7209 1.9001 14.9 1.72101 14.9 1.5001C14.9 1.27918 14.7209 1.1001 14.5 1.1001H13.9V0.500098ZM11.8536 3.14654C12.0488 3.3418 12.0488 3.65838 11.8536 3.85365L10.8536 4.85365C10.6583 5.04891 10.3417 5.04891 10.1465 4.85365C9.9512 4.65839 9.9512 4.34181 10.1465 4.14654L11.1464 3.14655C11.3417 2.95128 11.6583 2.95128 11.8536 3.14654ZM9.85357 5.14654C10.0488 5.3418 10.0488 5.65839 9.85357 5.85365L2.85355 12.8536C2.65829 13.0489 2.34171 13.0489 2.14645 12.8536C1.95118 12.6584 1.95118 12.3418 2.14645 12.1465L9.14646 5.14654C9.34172 4.95128 9.65831 4.95128 9.85357 5.14654ZM13.5 5.1001C13.7209 5.1001 13.9 5.27918 13.9 5.5001V6.1001H14.5C14.7209 6.1001 14.9 6.27918 14.9 6.5001C14.9 6.72101 14.7209 6.9001 14.5 6.9001H13.9V7.5001C13.9 7.72101 13.7209 7.9001 13.5 7.9001C13.2791 7.9001 13.1 7.72101 13.1 7.5001V6.9001H12.5C12.2791 6.9001 12.1 6.72101 12.1 6.5001C12.1 6.27918 12.2791 6.1001 12.5 6.1001H13.1V5.5001C13.1 5.27918 13.2791 5.1001 13.5 5.1001ZM8.90002 0.500098C8.90002 0.279184 8.72093 0.100098 8.50002 0.100098C8.2791 0.100098 8.10002 0.279184 8.10002 0.500098V1.1001H7.50002C7.2791 1.1001 7.10002 1.27918 7.10002 1.5001C7.10002 1.72101 7.2791 1.9001 7.50002 1.9001H8.10002V2.5001C8.10002 2.72101 8.2791 2.9001 8.50002 2.9001C8.72093 2.9001 8.90002 2.72101 8.90002 2.5001V1.9001H9.50002C9.72093 1.9001 9.90002 1.72101 9.90002 1.5001C9.90002 1.27918 9.72093 1.1001 9.50002 1.1001H8.90002V0.500098Z" fill="white"/>
</svg>
