<svg width="24" height="25" viewBox="0 0 24 25" fill="none" xmlns="http://www.w3.org/2000/svg">
<path d="M12.007 2.14506C15.2152 2.14506 15.5951 2.15899 16.8568 2.21482C18.0294 2.26601 18.6625 2.46143 19.0847 2.62429C19.6428 2.83833 20.0461 3.09893 20.4635 3.51304C20.8856 3.93179 21.1436 4.32732 21.3594 4.88101C21.5236 5.29982 21.7205 5.93262 21.7721 7.09119C21.8284 8.3475 21.8424 8.7244 21.8424 11.9024C21.8424 15.0851 21.8284 15.462 21.7721 16.7137C21.7205 17.8769 21.5236 18.505 21.3594 18.9238C21.1436 19.4775 20.881 19.8777 20.4635 20.2919C20.0414 20.7106 19.6428 20.9665 19.0847 21.1806C18.6625 21.3435 18.0246 21.5388 16.8568 21.59C15.5904 21.6458 15.2105 21.6599 12.007 21.6599C8.79888 21.6599 8.41902 21.6458 7.15734 21.59C5.98476 21.5388 5.35158 21.3435 4.92948 21.1806C4.3713 20.9665 3.96792 20.706 3.5505 20.2919C3.1284 19.8731 2.87046 19.4775 2.6547 18.9238C2.49054 18.505 2.29356 17.8723 2.24196 16.7137C2.18568 15.4573 2.17158 15.0805 2.17158 11.9024C2.17158 8.71976 2.18568 8.34286 2.24196 7.09119C2.29356 5.92798 2.49054 5.29982 2.6547 4.88101C2.87046 4.32732 3.13308 3.92714 3.5505 3.51304C3.97266 3.09429 4.3713 2.83833 4.92948 2.62429C5.35158 2.46143 5.98944 2.26601 7.15734 2.21482C8.41902 2.15899 8.79888 2.14506 12.007 2.14506ZM12.007 0C8.74734 0 8.33928 0.0139881 7.05882 0.0698214C5.7831 0.125655 4.90602 0.330357 4.14618 0.623512C3.35352 0.930595 2.68284 1.33542 2.01678 2.00077C1.3461 2.66155 0.93804 3.3269 0.6285 4.10863C0.333 4.86708 0.12666 5.7325 0.07038 6.99815C0.0141 8.2731 0 8.67792 0 11.9117C0 15.1456 0.0141 15.5505 0.07038 16.8207C0.12666 18.0863 0.333 18.9564 0.6285 19.7102C0.93804 20.4965 1.3461 21.162 2.01678 21.8227C2.68284 22.4835 3.35352 22.8929 4.1415 23.1954C4.90602 23.4885 5.77836 23.6932 7.05414 23.749C8.3346 23.8049 8.7426 23.8188 12.0023 23.8188C15.2621 23.8188 15.6702 23.8049 16.9506 23.749C18.2263 23.6932 19.1034 23.4885 19.8632 23.1954C20.6512 22.8929 21.3218 22.4835 21.9878 21.8227C22.6538 21.162 23.0666 20.4965 23.3714 19.7149C23.667 18.9564 23.8734 18.091 23.9297 16.8254C23.986 15.5551 24 15.1502 24 11.9164C24 8.68256 23.986 8.27774 23.9297 7.00744C23.8734 5.74185 23.667 4.87173 23.3714 4.11792C23.076 3.3269 22.668 2.66155 21.9973 2.00077C21.3313 1.34006 20.6605 0.930595 19.8726 0.628155C19.1081 0.335 18.2357 0.130298 16.96 0.0744644C15.6749 0.0139882 15.2668 0 12.007 0Z" fill="white"/>
<path d="M11.9989 5.79309C8.59375 5.79309 5.83124 8.53369 5.83124 11.9118C5.83124 15.2899 8.59375 18.0306 11.9989 18.0306C15.404 18.0306 18.1665 15.2899 18.1665 11.9118C18.1665 8.53369 15.404 5.79309 11.9989 5.79309ZM11.9989 15.8808C9.78979 15.8808 7.99813 14.1034 7.99813 11.9118C7.99813 9.72023 9.78979 7.94279 11.9989 7.94279C14.208 7.94279 15.9997 9.72023 15.9997 11.9118C15.9997 14.1034 14.208 15.8808 11.9989 15.8808Z" fill="white"/>
<path d="M19.858 5.55113C19.858 6.34214 19.2107 6.97959 18.4181 6.97959C17.6207 6.97959 16.9781 6.3375 16.9781 5.55113C16.9781 4.76012 17.6254 4.12268 18.4181 4.12268C19.2107 4.12268 19.858 4.76476 19.858 5.55113Z" fill="white"/>
</svg>
