<svg width="20" height="21" viewBox="0 0 20 21" fill="none" xmlns="http://www.w3.org/2000/svg">
<path d="M19.1675 9.0028V5.33711C17.4465 5.33711 16.1332 4.87892 15.2856 3.98832C14.4157 2.97193 13.9284 1.68476 13.9076 0.348494V0.0839089L10.4333 0C10.4333 0 10.4333 0.148422 10.4333 0.348494V14.8885C10.3141 15.538 9.99796 16.1355 9.52763 16.6002C9.05721 17.0649 8.45522 17.3745 7.80293 17.4871C7.15057 17.5997 6.47932 17.5099 5.87969 17.23C5.28012 16.95 4.78109 16.4932 4.45002 15.9214C4.11888 15.3495 3.97164 14.6901 4.02821 14.0321C4.08471 13.3742 4.3422 12.7493 4.76603 12.242C5.1898 11.7347 5.75945 11.3692 6.3981 11.195C7.03668 11.0208 7.71348 11.0463 8.33707 11.268V7.71852C7.97346 7.65906 7.60566 7.62889 7.2372 7.62815C5.91155 7.62815 4.61569 8.02028 3.51344 8.75491C2.4112 9.48961 1.55206 10.5338 1.04478 11.7555C0.537438 12.9772 0.404714 14.3215 0.663346 15.6184C0.92198 16.9154 1.56036 18.1066 2.49774 19.0418C3.43513 19.9768 4.6294 20.6135 5.92957 20.8715C7.22976 21.1295 8.57748 20.9972 9.80226 20.4911C11.027 19.9851 12.0738 19.1281 12.8103 18.0285C13.5468 16.929 13.9399 15.6364 13.9399 14.314C13.9392 14.0401 13.9219 13.7663 13.8881 13.4945V7.58942C15.4679 8.57355 17.306 9.06563 19.1675 9.0028Z" fill="white"/>
</svg>
