<svg width="24" height="19" viewBox="0 0 24 19" fill="none" xmlns="http://www.w3.org/2000/svg">
<path d="M7.64488 19C4.99999 19 2.53452 18.2228 0.459351 16.8816C2.22124 16.9968 5.33057 16.7209 7.26456 14.857C4.3552 14.7221 3.04313 12.4676 2.87198 11.5041C3.11918 11.6004 4.29815 11.716 4.96369 11.4463C1.61696 10.5984 1.10355 7.63083 1.21764 6.72516C1.84516 7.16836 2.91001 7.32252 3.32836 7.28397C0.209819 5.02941 1.33174 1.63793 1.88318 0.905679C4.12116 4.03846 7.4752 5.79795 11.6246 5.89582C11.5463 5.54912 11.505 5.18818 11.505 4.81745C11.505 2.15684 13.6334 0 16.2589 0C17.6306 0 18.8667 0.588797 19.7345 1.5306C20.6511 1.31357 22.0307 0.805491 22.7052 0.366125C22.3652 1.5994 21.3068 2.62819 20.6666 3.00949C20.6719 3.02247 20.6615 2.99647 20.6666 3.00949C21.2289 2.92355 22.7505 2.62809 23.3516 2.21603C23.0544 2.90886 21.9324 4.06082 21.0115 4.70574C21.1829 12.3401 15.4019 19 7.64488 19Z" fill="white"/>
</svg>
