<svg width="24" height="17" viewBox="0 0 24 17" fill="none" xmlns="http://www.w3.org/2000/svg">
<path d="M23.9745 5.99133C24.0278 4.41828 23.69 2.85702 22.9923 1.45252C22.5189 0.876209 21.8619 0.487293 21.1358 0.353531C18.1327 0.0760832 15.1172 -0.037646 12.102 0.0128446C9.09791 -0.0399696 6.09318 0.0701173 3.10058 0.34254C2.50893 0.452126 1.96138 0.734722 1.52478 1.15579C0.5534 2.06795 0.445469 3.62851 0.337538 4.9473C0.180944 7.31842 0.180944 9.69763 0.337538 12.0687C0.368745 12.811 0.477293 13.5478 0.661331 14.2667C0.791466 14.8218 1.05475 15.3353 1.42764 15.7613C1.86721 16.2047 2.42752 16.5034 3.03582 16.6186C5.36269 16.911 7.70733 17.0322 10.0514 16.9812C13.829 17.0361 17.1425 16.9812 21.0603 16.6735C21.6836 16.5654 22.2597 16.2663 22.7117 15.8163C23.0138 15.5085 23.2396 15.1317 23.37 14.7173C23.756 13.5113 23.9456 12.2491 23.9313 10.9807C23.9745 10.3653 23.9745 6.65073 23.9745 5.99133ZM9.6628 11.6401V4.8374L16.0523 8.25525C14.2607 9.26632 11.897 10.4093 9.6628 11.6401Z" fill="white"/>
</svg>
