<svg width="161" height="16" viewBox="0 0 161 16" fill="none" xmlns="http://www.w3.org/2000/svg">
    <path d="M152.7 15.5C152.867 15.5 153.033 15.4833 153.2 15.45C153.367 15.45 153.55 15.4333 153.75 15.4C154.15 15.2666 154.483 14.9833 154.75 14.55C154.883 14.2833 154.95 13.9166 154.95 13.45C154.95 12.9833 154.8 12.2166 154.5 11.15C154.2 10.0833 153.717 8.49997 153.05 6.39997C153.783 6.66663 154.633 6.9833 155.6 7.34997C156.533 7.71663 157.5 8.0833 158.5 8.44997C158.867 8.5833 159.233 8.56664 159.6 8.39997C160 8.19997 160.283 7.89997 160.45 7.49997C160.583 7.1333 160.55 6.76663 160.35 6.39997C160.183 5.99997 159.9 5.71663 159.5 5.54997C158.067 5.01663 156.733 4.51663 155.5 4.04997C154.233 3.5833 153.2 3.19997 152.4 2.89997C151.6 2.59997 151.2 2.44997 151.2 2.44997C150.867 2.31663 150.55 2.29997 150.25 2.39997C149.817 2.49996 149.5 2.74997 149.3 3.14997C149.133 3.44997 149.083 3.71663 149.15 3.94997C149.183 4.1833 149.233 4.4333 149.3 4.69997C149.367 4.8333 149.417 4.9833 149.45 5.14997C149.483 5.2833 149.533 5.44997 149.6 5.64997C149.833 6.21663 150.083 6.91663 150.35 7.74997C150.583 8.54997 150.833 9.36664 151.1 10.2C151.267 10.6666 151.4 11.0666 151.5 11.4C151.6 11.7333 151.683 12.0333 151.75 12.3C151.117 12.1666 150.2 11.7833 149 11.15C147.967 10.5833 146.867 9.9333 145.7 9.19997C144.5 8.4333 143.283 7.6333 142.05 6.79997C141.783 6.6333 141.517 6.46663 141.25 6.29997C140.95 6.1333 140.683 5.94997 140.45 5.74997C140.083 5.51663 139.7 5.44997 139.3 5.54997C138.867 5.61663 138.533 5.8333 138.3 6.19997C138.067 6.5333 138 6.89997 138.1 7.29997C138.167 7.69997 138.383 8.01663 138.75 8.24997C139.017 8.44997 139.3 8.64997 139.6 8.84997C139.867 9.01663 140.15 9.19997 140.45 9.39997C141.717 10.2333 142.95 11.0333 144.15 11.8C145.35 12.5666 146.483 13.2333 147.55 13.8C149.717 14.9333 151.433 15.5 152.7 15.5Z"
          fill="#9736FF"/>
    <path d="M126.806 12.55C127.206 12.55 127.54 12.4333 127.806 12.2C128.34 11.7666 128.49 11.2166 128.256 10.55C128.256 10.5166 128.14 10.1166 127.906 9.34997C127.64 8.5833 127.34 7.71663 127.006 6.74997C126.84 6.1833 126.69 5.69997 126.556 5.29997C126.423 4.86663 126.306 4.4833 126.206 4.14997C127.106 4.4833 128.206 4.89997 129.506 5.39997C130.806 5.86664 132.173 6.36664 133.606 6.89997C135.006 7.4333 136.373 7.94997 137.706 8.44997C138.073 8.5833 138.44 8.56664 138.806 8.39997C139.206 8.19997 139.49 7.89997 139.656 7.49997C139.79 7.1333 139.756 6.76663 139.556 6.39997C139.39 5.99997 139.106 5.71663 138.706 5.54997C137.206 5.01663 135.656 4.46664 134.056 3.89997C132.456 3.29997 130.973 2.74997 129.606 2.24997C128.24 1.71663 127.123 1.2833 126.256 0.949966C125.39 0.616632 124.956 0.449966 124.956 0.449966C124.79 0.416634 124.623 0.399967 124.456 0.399967C124.29 0.366634 124.14 0.383301 124.006 0.449966C123.54 0.516633 123.206 0.783301 123.006 1.24997C122.84 1.51663 122.773 1.86663 122.806 2.29997C122.806 2.69997 122.89 3.2833 123.056 4.04997C123.156 4.4833 123.29 4.96663 123.456 5.49997C123.59 5.99997 123.773 6.5833 124.006 7.24997C124.04 7.3833 124.073 7.49997 124.106 7.59997C124.14 7.69997 124.173 7.81664 124.206 7.94997C122.873 7.21663 121.24 6.44997 119.306 5.64997C118.94 5.4833 118.573 5.4833 118.206 5.64997C117.806 5.7833 117.54 6.0333 117.406 6.39997C117.206 6.76663 117.19 7.14997 117.356 7.54997C117.523 7.94997 117.79 8.2333 118.156 8.39997C119.656 9.06664 121.006 9.69997 122.206 10.3C123.373 10.9 124.306 11.3833 125.006 11.75C125.706 12.1166 126.056 12.3 126.056 12.3C126.256 12.4666 126.506 12.55 126.806 12.55Z"
          fill="#9736FF"/>
    <path d="M99.9118 12.05C100.145 12.05 100.362 12.0166 100.562 11.95C101.195 11.8166 101.645 11.4333 101.912 10.8C102.112 10.2333 102.062 9.59997 101.762 8.89997C101.428 8.19997 100.995 7.41663 100.462 6.54997C100.262 6.24997 100.078 5.94997 99.9118 5.64997C99.7118 5.31663 99.5451 5.01663 99.4118 4.74997C99.3451 4.64997 99.2951 4.56663 99.2618 4.49997C99.2285 4.39997 99.1951 4.31663 99.1618 4.24997C100.162 4.0833 101.328 4.04997 102.662 4.14997C103.962 4.21663 105.428 4.46663 107.062 4.89997C108.495 5.26663 110.045 5.74997 111.712 6.34997C113.345 6.91663 115.078 7.59997 116.912 8.39997C117.278 8.5333 117.645 8.5333 118.012 8.39997C118.378 8.26664 118.645 8.01664 118.812 7.64997C119.012 7.2833 119.028 6.89997 118.862 6.49997C118.695 6.06663 118.428 5.7833 118.062 5.64997C116.195 4.81663 114.412 4.09997 112.712 3.49997C110.978 2.86663 109.345 2.36663 107.812 1.99997C103.712 0.966634 100.362 0.799967 97.7618 1.49997C96.9951 1.69997 96.4618 2.16663 96.1618 2.89997C95.8618 3.6333 95.9285 4.44997 96.3618 5.34997C96.7951 6.24997 97.3118 7.1833 97.9118 8.14997C97.9451 8.21664 97.9951 8.29997 98.0618 8.39997C98.1285 8.49997 98.1951 8.61663 98.2618 8.74997C97.4951 8.5833 96.3618 8.24997 94.8618 7.74997C93.3618 7.24997 91.2951 6.51663 88.6618 5.54997C88.2951 5.41663 87.9285 5.44997 87.5618 5.64997C87.1618 5.81663 86.8951 6.09997 86.7618 6.49997C86.5951 6.86663 86.5951 7.24997 86.7618 7.64997C86.9285 8.01664 87.2285 8.2833 87.6618 8.44997C89.1951 8.9833 90.5951 9.46664 91.8618 9.89997C93.1285 10.3333 94.2618 10.7 95.2618 11C96.5951 11.4 97.6118 11.6833 98.3118 11.85C99.0118 11.9833 99.5451 12.05 99.9118 12.05Z"
          fill="#9736FF"/>
    <path d="M82.7073 15.4C82.9407 15.4 83.174 15.3666 83.4073 15.3C83.6406 15.2666 83.874 15.2333 84.1073 15.2C84.7073 15.0333 85.124 14.6833 85.3573 14.15C85.6573 13.4833 85.6573 12.6833 85.3573 11.75C85.024 10.7833 84.4907 9.54997 83.7573 8.04997C83.624 7.7833 83.4907 7.4833 83.3573 7.14997C83.1907 6.81663 83.0406 6.49997 82.9073 6.19997C83.3407 6.36663 83.8073 6.64997 84.3073 7.04997C84.774 7.41663 85.2573 7.79997 85.7573 8.19997C86.0907 8.4333 86.4573 8.5333 86.8573 8.49997C87.2907 8.4333 87.6406 8.24997 87.9073 7.94997C88.1406 7.61663 88.224 7.24997 88.1573 6.84997C88.124 6.44997 87.9573 6.09997 87.6573 5.79997C87.1907 5.46663 86.7073 5.09997 86.2073 4.69997C85.674 4.29997 85.1407 3.96663 84.6073 3.69997C83.2407 2.99997 81.9907 2.81664 80.8573 3.14997C80.324 3.24997 79.924 3.5833 79.6573 4.14997C79.3906 4.6833 79.4073 5.34997 79.7073 6.14997C79.974 6.94997 80.4407 8.0333 81.1073 9.39997C81.274 9.79997 81.4573 10.2 81.6573 10.6C81.824 11 81.9907 11.3833 82.1573 11.75C82.1907 11.8833 82.2407 12 82.3073 12.1C82.3407 12.2 82.374 12.3 82.4073 12.4C81.7073 12.3 80.6907 11.95 79.3573 11.35C77.9907 10.7166 76.1573 9.4833 73.8573 7.64997C72.624 6.6833 71.5073 5.74997 70.5073 4.84997C69.5073 3.91663 68.7073 3.14997 68.1073 2.54997C67.5073 1.94997 67.2073 1.64997 67.2073 1.64997C66.8073 1.1833 66.324 1.0333 65.7573 1.19997C65.4907 1.2333 65.274 1.34997 65.1073 1.54997C64.9407 1.71663 64.8073 1.8833 64.7073 2.04997C64.474 2.51663 64.4573 3.06664 64.6573 3.69997C64.824 4.29997 65.1907 5.2833 65.7573 6.64997C65.9573 7.0833 66.1573 7.51663 66.3573 7.94997C66.524 8.3833 66.6907 8.7833 66.8573 9.14997C66.8907 9.2833 66.924 9.39997 66.9573 9.49997C66.9573 9.56663 66.974 9.6333 67.0073 9.69997C66.374 9.59997 65.7073 9.3333 65.0073 8.89997C64.274 8.4333 63.574 7.91663 62.9073 7.34997C62.2073 6.7833 61.624 6.29997 61.1573 5.89997C60.824 5.59997 60.4573 5.46663 60.0573 5.49997C59.6573 5.5333 59.3073 5.69997 59.0073 5.99997C58.7406 6.3333 58.624 6.69997 58.6573 7.09997C58.6573 7.49997 58.824 7.84997 59.1573 8.14997C60.1907 9.04997 61.2573 9.89997 62.3573 10.7C63.424 11.5 64.5073 12.1 65.6073 12.5C66.674 12.8666 67.7573 12.9166 68.8573 12.65C69.3907 12.4166 69.774 12.0833 70.0073 11.65C70.2073 11.1833 70.274 10.6666 70.2073 10.1C70.1073 9.5333 69.9073 8.8333 69.6073 7.99997C69.974 8.3333 70.3573 8.64997 70.7573 8.94997C71.124 9.24997 71.524 9.5833 71.9573 9.94997C76.5573 13.5833 80.1407 15.4 82.7073 15.4Z"
          fill="#9736FF"/>
    <path d="M54.7849 15.4C55.0182 15.4 55.2515 15.3666 55.4849 15.3C55.7182 15.2666 55.9516 15.2333 56.1849 15.2C56.7849 15.0333 57.2016 14.6833 57.4349 14.15C57.7349 13.4833 57.7349 12.6833 57.4349 11.75C57.1015 10.7833 56.5682 9.54997 55.8349 8.04997C55.7016 7.7833 55.5682 7.4833 55.4349 7.14997C55.2682 6.81663 55.1182 6.49997 54.9849 6.19997C55.4182 6.36663 55.8849 6.64997 56.3849 7.04997C56.8515 7.41663 57.3349 7.79997 57.8349 8.19997C58.1682 8.4333 58.5349 8.5333 58.9349 8.49997C59.3682 8.4333 59.7182 8.24997 59.9849 7.94997C60.2182 7.61663 60.3015 7.24997 60.2349 6.84997C60.2015 6.44997 60.0349 6.09997 59.7349 5.79997C59.2682 5.46663 58.7849 5.09997 58.2849 4.69997C57.7515 4.29997 57.2182 3.96663 56.6849 3.69997C55.3182 2.99997 54.0682 2.81664 52.9349 3.14997C52.4016 3.24997 52.0015 3.5833 51.7349 4.14997C51.4682 4.6833 51.4849 5.34997 51.7849 6.14997C52.0516 6.94997 52.5182 8.0333 53.1849 9.39997C53.3515 9.79997 53.5349 10.2 53.7349 10.6C53.9015 11 54.0682 11.3833 54.2349 11.75C54.2682 11.8833 54.3182 12 54.3849 12.1C54.4182 12.2 54.4515 12.3 54.4849 12.4C53.7849 12.3 52.7682 11.95 51.4349 11.35C50.0682 10.7166 48.2349 9.4833 45.9349 7.64997C44.7016 6.6833 43.5849 5.74997 42.5849 4.84997C41.5849 3.91663 40.7849 3.14997 40.1849 2.54997C39.5849 1.94997 39.2849 1.64997 39.2849 1.64997C38.8849 1.1833 38.4015 1.0333 37.8349 1.19997C37.5682 1.2333 37.3515 1.34997 37.1849 1.54997C37.0182 1.71663 36.8849 1.8833 36.7849 2.04997C36.5516 2.51663 36.5349 3.06664 36.7349 3.69997C36.9015 4.29997 37.2682 5.2833 37.8349 6.64997C38.0349 7.0833 38.2349 7.51663 38.4349 7.94997C38.6015 8.3833 38.7682 8.7833 38.9349 9.14997C38.9682 9.2833 39.0015 9.39997 39.0349 9.49997C39.0349 9.56663 39.0515 9.6333 39.0849 9.69997C38.4515 9.59997 37.7849 9.3333 37.0849 8.89997C36.3515 8.4333 35.6515 7.91663 34.9849 7.34997C34.2849 6.7833 33.7015 6.29997 33.2349 5.89997C32.9015 5.59997 32.5349 5.46663 32.1349 5.49997C31.7349 5.5333 31.3849 5.69997 31.0849 5.99997C30.8182 6.3333 30.7015 6.69997 30.7349 7.09997C30.7349 7.49997 30.9016 7.84997 31.2349 8.14997C32.2682 9.04997 33.3349 9.89997 34.4349 10.7C35.5015 11.5 36.5849 12.1 37.6849 12.5C38.7515 12.8666 39.8349 12.9166 40.9349 12.65C41.4682 12.4166 41.8515 12.0833 42.0849 11.65C42.2849 11.1833 42.3515 10.6666 42.2849 10.1C42.1849 9.5333 41.9849 8.8333 41.6849 7.99997C42.0516 8.3333 42.4349 8.64997 42.8349 8.94997C43.2016 9.24997 43.6015 9.5833 44.0349 9.94997C48.6349 13.5833 52.2182 15.4 54.7849 15.4Z"
          fill="#9736FF"/>
    <path d="M13.3124 12.05C13.5458 12.05 13.7625 12.0166 13.9624 11.95C14.5958 11.8166 15.0458 11.4333 15.3124 10.8C15.5124 10.2333 15.4624 9.59997 15.1624 8.89997C14.8291 8.19997 14.3958 7.41663 13.8624 6.54997C13.6624 6.24997 13.4791 5.94997 13.3124 5.64997C13.1124 5.31663 12.9458 5.01663 12.8124 4.74997C12.7458 4.64997 12.6958 4.56663 12.6624 4.49997C12.6291 4.39997 12.5958 4.31663 12.5624 4.24997C13.5624 4.0833 14.7291 4.04997 16.0624 4.14997C17.3624 4.21663 18.8291 4.46663 20.4624 4.89997C21.8958 5.26663 23.4458 5.74997 25.1124 6.34997C26.7458 6.91663 28.4791 7.59997 30.3124 8.39997C30.6791 8.5333 31.0458 8.5333 31.4124 8.39997C31.7791 8.26664 32.0458 8.01664 32.2124 7.64997C32.4124 7.2833 32.4291 6.89997 32.2624 6.49997C32.0958 6.06663 31.8291 5.7833 31.4624 5.64997C29.5958 4.81663 27.8124 4.09997 26.1124 3.49997C24.3791 2.86663 22.7458 2.36663 21.2124 1.99997C17.1124 0.966634 13.7625 0.799967 11.1624 1.49997C10.3958 1.69997 9.86244 2.16663 9.56244 2.89997C9.26244 3.6333 9.3291 4.44997 9.76244 5.34997C10.1958 6.24997 10.7124 7.1833 11.3124 8.14997C11.3458 8.21664 11.3958 8.29997 11.4624 8.39997C11.5291 8.49997 11.5958 8.61663 11.6624 8.74997C10.8958 8.5833 9.76244 8.24997 8.26244 7.74997C6.76244 7.24997 4.69577 6.51663 2.06244 5.54997C1.69577 5.41663 1.3291 5.44997 0.962433 5.64997C0.562439 5.81663 0.295776 6.09997 0.162445 6.49997C-0.00422668 6.86663 -0.00422668 7.24997 0.162445 7.64997C0.329117 8.01664 0.629105 8.2833 1.06244 8.44997C2.59578 8.9833 3.99577 9.46664 5.26244 9.89997C6.5291 10.3333 7.66245 10.7 8.66245 11C9.99577 11.4 11.0125 11.6833 11.7124 11.85C12.4124 11.9833 12.9458 12.05 13.3124 12.05Z"
          fill="#9736FF"/>
</svg>
