<svg width="50" height="50" viewBox="0 0 50 50" fill="none" xmlns="http://www.w3.org/2000/svg">
    <path d="M4.51434 15.5837L8.66997 11.42L9.41247 19.4781L11.2887 17.4975L10.0581 27.7712L7.66309 20.7912L6.52747 21.9887L4.51434 15.5837Z"
          fill="#22093A" stroke="#22093A" stroke-linecap="round" stroke-linejoin="round"/>
    <path d="M41.8473 20.8323C41.8473 20.8323 41.2238 18.0731 39.9448 12.1431C38.6737 6.2495 36.6731 1.86707 34.2913 1.86707C30.7928 1.86707 30.3959 6.09837 31.1221 10.783C31.8482 15.4677 32.2286 16.0721 32.2286 16.0721C32.2286 16.0721 29.3836 11.9788 25.295 12.9006C24.1002 13.1457 22.9678 13.6317 21.9671 14.329C21.9671 14.329 18.1721 5.77095 15.1497 5.77095C12.1274 5.77095 11.5571 10.4304 13.7141 14.435C15.8711 18.4397 16.812 19.4471 16.812 19.4471C16.812 19.4471 12.5516 30.1641 16.7926 36.0864C20.5144 41.2836 26.4862 42.2637 32.2286 41.2836C38.1109 40.2477 42.6429 35.5182 43.4273 29.5972C44.0133 25.3344 43.7617 23.0102 41.8473 20.8323Z"
          fill="#22093A" stroke="#22093A" stroke-linecap="round" stroke-linejoin="round"/>
    <path d="M41.4534 20.6926C43.3677 22.8704 43.6193 25.1946 43.0334 29.4574C42.249 35.3785 37.717 40.1079 31.8347 41.1438C26.0922 42.1239 20.1204 41.1438 16.3987 35.9466C12.1577 30.0243 16.4181 19.3073 16.4181 19.3073C16.4181 19.3073 15.4772 18.2998 13.3202 14.2952C11.1632 10.2906 11.7334 5.63116 14.7558 5.63116C17.7781 5.63116 21.5731 14.1892 21.5731 14.1892C22.5739 13.4919 23.7062 13.0059 24.9011 12.7608C28.9896 11.839 31.8347 15.9323 31.8347 15.9323C31.8347 15.9323 31.4543 15.3279 30.7281 10.6432C30.002 5.95859 30.3989 1.72729 33.8973 1.72729C36.2791 1.72729 38.2798 6.1097 39.5509 12.0033C40.8299 17.9333 41.4534 20.6926 41.4534 20.6926Z"
          fill="#FCC707" stroke="#22093A" stroke-linecap="round" stroke-linejoin="round"/>
    <path d="M21.5731 14.1892C19.426 15.8892 18.6486 18.6089 19.8182 21.9335C21.5272 26.7913 23.9392 27.0194 24.9011 26.435C25.8242 25.8742 27.327 22.8838 26.3758 18.5769"
          fill="#FCC707"/>
    <path d="M21.5731 14.1892C19.426 15.8892 18.6486 18.6089 19.8182 21.9335C21.5272 26.7913 23.9392 27.0194 24.9011 26.435C25.8242 25.8742 27.327 22.8838 26.3758 18.5769"
          stroke="#22093A" stroke-linecap="round" stroke-linejoin="round"/>
    <path d="M41.4534 20.6925C38.6324 19.2569 34.9092 19.8614 31.8347 20.6925C30.7611 20.9828 28.0617 22.3074 28.0617 24.0704C28.0618 28.4492 35.3977 28.4527 35.3977 28.4527C31.1664 29.0567 30.2635 33.6098 30.2635 33.6098"
          fill="#FCC707"/>
    <path d="M41.4534 20.6925C38.6324 19.2569 34.9092 19.8614 31.8347 20.6925C30.7611 20.9828 28.0617 22.3074 28.0617 24.0704C28.0618 28.4492 35.3977 28.4527 35.3977 28.4527C31.1664 29.0567 30.2635 33.6098 30.2635 33.6098"
          stroke="#22093A" stroke-linecap="round" stroke-linejoin="round"/>
    <path d="M31.8347 15.9323C32.3167 16.5014 32.7019 17.146 32.9747 17.8402" stroke="#22093A" stroke-linecap="round"
          stroke-linejoin="round"/>
    <path d="M4.12433 16.0481L8.27995 11.885L9.02245 19.9425L10.8987 17.9625L10.0581 27.7713L7.27308 21.2556L6.13808 22.4531L4.12433 16.0481Z"
          fill="#FD32B0" stroke="#22093A" stroke-linecap="round" stroke-linejoin="round"/>
    <path d="M40.5837 3.14062L46.7125 1.995L42.4587 9.55562L45.4262 8.86062L38.0918 17.0244L40.1237 9.62374L37.9468 9.97L40.5837 3.14062Z"
          fill="#22093A" stroke="#22093A" stroke-linecap="round" stroke-linejoin="round"/>
    <path d="M40.135 3.14063L46.3262 2.0675L42.0106 9.55563L44.8675 8.98376L38.0918 17.0244L39.675 9.62375L37.9468 9.97L40.135 3.14063Z"
          fill="#FD32B0" stroke="#22093A" stroke-linecap="round" stroke-linejoin="round"/>
    <path d="M5.61853 16.6653L6.06012 18.2674" stroke="white" stroke-linecap="round" stroke-linejoin="round"/>
    <path d="M40.6282 6.00983C40.2725 7.20911 40.0271 8.08545 40.0271 8.08545" stroke="white" stroke-linecap="round"
          stroke-linejoin="round"/>
    <path d="M41.1316 4.34729C41.0257 4.68948 41.076 4.52538 40.9787 4.84815" stroke="white" stroke-linecap="round"
          stroke-linejoin="round"/>
    <path d="M40.2942 12.0372L40.2196 12.6068" stroke="white" stroke-linecap="round" stroke-linejoin="round"/>
    <path d="M9.19299 23.1476L9.371 23.8924" stroke="white" stroke-linecap="round" stroke-linejoin="round"/>
    <path d="M13.9405 8.34894C13.3228 9.15348 13.2872 11.3608 15.0673 14.3513" stroke="white" stroke-linecap="round"
          stroke-linejoin="round"/>
    <path d="M16.1785 26.4883C15.9403 28.2736 16.071 30.0888 16.5625 31.8216" stroke="white" stroke-linecap="round"
          stroke-linejoin="round"/>
    <path d="M16.5625 24.2068C16.4885 24.5333 16.4234 24.8547 16.3673 25.171" stroke="white" stroke-linecap="round"
          stroke-linejoin="round"/>
    <path d="M20.7649 20.6964C20.8359 21.006 20.9306 21.3096 21.0482 21.6047" stroke="white" stroke-linecap="round"
          stroke-linejoin="round"/>
    <path d="M22.5541 15.0277C21.4398 15.8465 20.5181 16.8078 20.5162 18.5878" stroke="white" stroke-linecap="round"
          stroke-linejoin="round"/>
    <path d="M31.8347 5.06482C31.5579 6.52122 31.5579 8.01673 31.8347 9.47314" stroke="white" stroke-linecap="round"
          stroke-linejoin="round"/>
    <path d="M37.847 34.9853C36.511 34.8589 35.5927 36.3552 35.1654 39.8416C34.7838 39.781 34.3708 39.7389 33.9375 39.7068C34.2496 36.6669 33.9266 35.0044 32.411 34.8611C30.9554 34.7234 29.994 36.5047 29.625 40.6951C29.2561 44.8856 29.5944 47.4048 31.5211 47.4468C32.4642 47.4673 32.9875 45.803 33.3909 43.5343C33.6055 43.5479 33.8297 43.5548 34.0725 43.5488C34.3808 43.5412 34.6635 43.5195 34.9315 43.4892C34.9417 46.0557 35.4846 47.5389 36.9571 47.571C38.2239 47.5986 38.7337 44.5883 39.212 41.1533C39.7525 37.2722 39.5699 35.1482 37.847 34.9853Z"
          fill="#22093A" stroke="#22093A" stroke-linecap="round" stroke-linejoin="round"/>
    <path d="M27.4866 46.6045C28.8704 46.4898 29.8304 45.3931 30.0434 43.8525C30.2737 42.1859 31.0943 34.1652 26.9171 33.6331C24.7428 33.3562 22.8977 35.5813 21.774 38.2666C20.555 41.1799 19.5908 45.6575 21.2875 46.0176C24.0131 46.5962 25.8555 38.8042 25.8555 38.8042C25.8555 38.8042 24.7906 46.8281 27.4866 46.6045Z"
          fill="#22093A" stroke="#22093A" stroke-linecap="round" stroke-linejoin="round"/>
    <path d="M22.6401 34.7477C22.1099 33.5941 17.0583 32.9813 15.497 35.7086C14.4783 37.4881 12.4887 44.1628 15.6664 45.114C18.8441 46.0651 21.689 45.5726 21.8576 43.8009C22.0262 42.0291 17.8624 41.6371 17.8624 41.6371C17.8624 41.6371 21.4588 41.7157 21.7583 39.8904C22.0579 38.0651 18.254 38.4043 18.254 38.4043C18.254 38.4043 24.0626 37.8427 22.6401 34.7477Z"
          fill="#22093A" stroke="#22093A" stroke-linecap="round" stroke-linejoin="round"/>
    <path d="M14.1617 32.6028C11.3847 32.4188 10.5885 38.8466 10.5885 38.8466C10.5885 38.8466 10.4742 31.3734 7.83426 31.8428C4.37636 32.4576 5.43047 38.5077 7.83316 41.0754C7.45078 42.045 6.38672 47.6866 9.98861 45.8601C11.948 44.8664 14.5178 39.9968 15.0001 38.8106C15.9486 36.4782 16.9569 32.7879 14.1617 32.6028Z"
          fill="#22093A" stroke="#22093A" stroke-linecap="round" stroke-linejoin="round"/>
    <path d="M44.9486 34.7389C43.9955 34.4914 43.0988 34.9328 41.5389 38.8253C40.1462 42.3007 41.519 42.8193 41.8841 42.9142C42.2493 43.009 44.3439 43.7499 45.7219 39.9117C47.0999 36.0736 46.3608 35.1057 44.9486 34.7389Z"
          fill="#22093A" stroke="#22093A" stroke-linecap="round" stroke-linejoin="round"/>
    <path d="M41.4074 46.9804C42.3607 46.9804 43.1335 46.2076 43.1335 45.2543C43.1335 44.301 42.3607 43.5283 41.4074 43.5283C40.4541 43.5283 39.6813 44.301 39.6813 45.2543C39.6813 46.2076 40.4541 46.9804 41.4074 46.9804Z"
          fill="#22093A" stroke="#22093A" stroke-linecap="round" stroke-linejoin="round"/>
    <path d="M37.1762 34.5721C35.8401 34.4457 34.9219 35.9421 34.4945 39.4285C34.1129 39.3678 33.6999 39.3257 33.2667 39.2937C33.5788 36.2538 33.2558 34.5913 31.7401 34.4479C30.2845 34.3102 29.3232 36.0915 28.9542 40.282C28.5852 44.4724 28.9236 46.9917 30.8503 47.0336C31.7933 47.0542 32.3167 45.3898 32.7201 43.1211C32.9346 43.1347 33.1588 43.1417 33.4016 43.1357C33.7099 43.128 33.9927 43.1064 34.2607 43.076C34.2709 45.6426 34.8137 47.1258 36.2863 47.1578C37.5531 47.1854 38.0629 44.1752 38.5412 40.7402C39.0817 36.8591 38.8991 34.7351 37.1762 34.5721Z"
          fill="#9736FF" stroke="#22093A" stroke-linecap="round" stroke-linejoin="round"/>
    <path d="M26.2462 33.2201C24.072 32.9432 22.2269 35.1681 21.1032 37.8535C19.8841 40.7668 18.9199 45.2444 20.6167 45.6046C21.8822 45.8732 22.9569 44.3369 23.7455 42.6142L25.0213 42.9513C25.1498 44.7137 25.5994 46.2923 26.8158 46.1914C28.1996 46.0767 29.1596 44.98 29.3726 43.4394C29.6029 41.7728 30.4235 33.7521 26.2462 33.2201ZM25.1846 38.3911C25.1846 38.3911 25.0217 39.6249 24.9851 41.1104L24.3967 40.9976C24.9022 39.5822 25.1846 38.3911 25.1846 38.3911Z"
          fill="#9736FF" stroke="#22093A" stroke-linecap="round" stroke-linejoin="round"/>
    <path d="M21.9692 34.3345C21.439 33.1809 16.3874 32.5682 14.8262 35.2954C13.8074 37.075 11.8179 43.7497 14.9956 44.7008C18.1733 45.652 21.0182 45.1595 21.1868 43.3877C21.3553 41.6159 17.1916 41.2239 17.1916 41.2239C17.1916 41.2239 20.7879 41.3026 21.0875 39.4773C21.387 37.652 17.5832 37.9911 17.5832 37.9911C17.5832 37.9911 23.3917 37.4296 21.9692 34.3345Z"
          fill="#9736FF" stroke="#22093A" stroke-linecap="round" stroke-linejoin="round"/>
    <path d="M13.4908 32.1896C10.7139 32.0057 9.9176 38.4335 9.9176 38.4335C9.9176 38.4335 9.80337 30.9603 7.16341 31.4297C3.70551 32.0445 4.75966 38.0946 7.16231 40.6622C6.77993 41.6319 5.71587 47.2735 9.31775 45.4469C11.2772 44.4533 13.847 39.5837 14.3293 38.3974C15.2778 36.065 16.286 32.3748 13.4908 32.1896Z"
          fill="#9736FF" stroke="#22093A" stroke-linecap="round" stroke-linejoin="round"/>
    <path d="M44.6778 34.5795C43.7247 34.3319 42.4279 34.5197 40.868 38.4122C39.4753 41.8876 40.8481 42.4062 41.2132 42.501C41.5784 42.5959 43.673 43.3368 45.051 39.4986C46.429 35.6605 46.0901 34.9463 44.6778 34.5795Z"
          fill="#9736FF" stroke="#22093A" stroke-linecap="round" stroke-linejoin="round"/>
    <path d="M40.7366 46.5673C41.6898 46.5673 42.4626 45.7945 42.4626 44.8412C42.4626 43.888 41.6898 43.1152 40.7366 43.1152C39.7833 43.1152 39.0105 43.888 39.0105 44.8412C39.0105 45.7945 39.7833 46.5673 40.7366 46.5673Z"
          fill="#9736FF" stroke="#22093A" stroke-linecap="round" stroke-linejoin="round"/>
    <path d="M7.08071 32.6503C6.41616 32.9351 5.72786 34.0506 6.34495 36.6377" stroke="#D9BBFF" stroke-linecap="round"
          stroke-linejoin="round"/>
    <path d="M7.90149 44.295C8.00631 44.8413 9.02688 44.4937 9.78638 43.5681" stroke="#D9BBFF" stroke-linecap="round"
          stroke-linejoin="round"/>
    <path d="M19.8517 34.6002C20.4736 34.6295 20.9848 34.8359 20.9066 35.5221" stroke="#D9BBFF" stroke-linecap="round"
          stroke-linejoin="round"/>
    <path d="M18.1646 34.7389C18.3956 34.6649 18.6346 34.6183 18.8766 34.6002" stroke="#D9BBFF" stroke-linecap="round"
          stroke-linejoin="round"/>
    <path d="M26.3173 34.4406C25.7002 34.3117 24.5728 34.3117 23.4217 36.3054" stroke="#D9BBFF" stroke-linecap="round"
          stroke-linejoin="round"/>
    <path d="M31.6099 35.5222C31.9778 35.5815 32.3694 36.0206 32.2863 37.8244" stroke="#D9BBFF" stroke-linecap="round"
          stroke-linejoin="round"/>
    <path d="M37.1519 35.6408C37.5316 35.7001 37.8757 36.0206 37.7452 37.1717" stroke="#D9BBFF" stroke-linecap="round"
          stroke-linejoin="round"/>
    <path d="M41.3807 40.4335C41.3198 40.6891 41.2827 40.9499 41.2698 41.2124" stroke="#D9BBFF" stroke-linecap="round"
          stroke-linejoin="round"/>
    <path d="M44.3567 35.5814C43.9413 35.5457 43.2565 35.4672 42.2681 37.7768C42.0467 38.2939 41.8745 38.7506 41.7404 39.1483"
          stroke="#D9BBFF" stroke-linecap="round" stroke-linejoin="round"/>
    <path d="M40.6159 44.0961C40.2082 44.1842 39.9491 44.5861 40.0371 44.9938C40.0609 45.1036 40.1087 45.2067 40.1773 45.2956"
          stroke="#D9BBFF" stroke-linecap="round" stroke-linejoin="round"/>
    <path d="M40.931 29.1559C40.6669 30.7583 40.1621 32.3116 39.4338 33.7631L40.931 29.1559Z" fill="#FCC707"/>
    <path d="M40.931 29.1559C40.6669 30.7583 40.1621 32.3116 39.4338 33.7631" stroke="#22093A" stroke-linecap="round"
          stroke-linejoin="round"/>
    <path d="M41.2216 26.6628C41.2133 27.102 41.1793 27.5403 41.1199 27.9755L41.2216 26.6628Z" fill="#FCC707"/>
    <path d="M41.2216 26.6628C41.2133 27.102 41.1793 27.5403 41.1199 27.9755" stroke="#22093A" stroke-linecap="round"
          stroke-linejoin="round"/>
</svg>
