<svg width="72" height="72" viewBox="0 0 72 72" fill="none" xmlns="http://www.w3.org/2000/svg">
    <path d="M20.0367 23.9665C16.6301 27.7 15.0334 32.7404 15.6691 37.7544C16.6201 45.2862 20.2522 52.5723 32.1133 54.3279C41.6023 55.7324 54.9172 50.4541 55.6111 36.0747C56.3058 21.6785 49.1029 17.7509 49.1029 17.7509C49.1029 17.7509 49.668 23.367 47.8695 22.5963C46.0711 21.8255 48.8171 18.6942 46.7617 15.4827C45.9456 14.0844 44.8494 12.8699 43.5418 11.9154C43.5418 11.9154 42.6077 18.3621 40.9328 16.6872C39.9479 15.7023 42.0372 13.4846 41.6804 10.7192C41.1666 6.73701 37.7613 6.59195 38.4605 3.09607C37.1759 3.35299 35.1204 7.0564 36.1372 10.0929C36.9988 12.6659 33.0539 11.6772 31.2983 14.0323C29.6038 16.3054 31.0026 18.3287 29.7996 18.6568C28.8576 18.9137 27.8214 14.5394 28.5922 11.2423C26.3656 12.2271 22.7344 16.5158 22.9056 21.3545C22.995 23.8792 23.2965 27.38 21.4587 26.4749C20.766 26.1337 20.0367 23.9665 20.0367 23.9665Z"
          fill="#22093A" stroke="#22093A" stroke-linecap="round" stroke-linejoin="round"/>
    <path d="M19.8998 23.0605C16.4932 26.794 14.8965 31.8344 15.5322 36.8485C16.4832 44.3802 20.1153 51.6663 31.9764 53.422C41.4654 54.8264 54.7802 49.5482 55.4742 35.1687C56.1689 20.7725 49.1029 17.7509 49.1029 17.7509C49.1029 17.7509 49.5311 22.461 47.7326 21.6903C45.9342 20.9195 48.6801 17.7882 46.6248 14.5767C44.9463 11.954 43.5418 11.9153 43.5418 11.9153C43.5418 11.9153 42.4708 17.456 40.7959 15.7811C39.811 14.7963 41.9004 12.5786 41.5435 9.81327C41.0297 5.83108 37.7613 6.59195 38.4605 3.09607C37.1759 3.35299 34.9835 6.15044 36.0003 9.18697C36.8619 11.7599 32.9171 10.7712 31.1614 13.1263C29.467 15.3994 30.8658 17.4228 29.6628 17.7509C28.7207 18.0078 27.8215 14.5394 28.5923 11.2423C26.3657 12.2271 22.5975 15.6099 22.7688 20.4485C22.8582 22.9733 23.1596 26.474 21.3219 25.569C20.629 25.2278 19.8998 23.0605 19.8998 23.0605Z"
          fill="#FCC707" stroke="#22093A" stroke-linecap="round" stroke-linejoin="round"/>
    <path d="M39.6036 10.0011C39.7425 10.7585 39.6226 11.5407 39.2634 12.2218C38.3098 14.1095 38.0279 14.8911 38.4815 15.7509"
          stroke="white" stroke-linecap="round" stroke-linejoin="round"/>
    <path d="M38.4815 7.34332C38.6643 7.68952 38.8586 8.04072 39.0356 8.40048" stroke="white" stroke-linecap="round"
          stroke-linejoin="round"/>
    <path d="M17.7732 30.6183C17.3907 32.1084 17.2871 33.6564 17.4674 35.1842" stroke="white" stroke-linecap="round"
          stroke-linejoin="round"/>
    <path d="M19.0577 27.1594C18.8804 27.5028 18.7001 27.8891 18.5266 28.31" stroke="white" stroke-linecap="round"
          stroke-linejoin="round"/>
    <path d="M26.8849 14.4971C26.2697 16.0009 27.413 18.3933 27.8761 18.8718" stroke="white" stroke-linecap="round"
          stroke-linejoin="round"/>
    <path d="M45.1509 15.3228C45.6691 16.0068 45.9105 16.8611 45.8269 17.7152" stroke="white" stroke-linecap="round"
          stroke-linejoin="round"/>
    <path d="M52.642 39.0295C51.8015 42.3084 49.9304 45.2307 47.3041 47.3661" stroke="#22093A" stroke-linecap="round"
          stroke-linejoin="round"/>
    <path d="M53.2373 36.1367C53.1895 36.4816 53.1273 36.8972 53.0378 37.3656" stroke="#22093A" stroke-linecap="round"
          stroke-linejoin="round"/>
    <path d="M19.1888 9.81329C19.1888 9.81329 22.0055 10.8165 21.8394 13.6781C21.7026 16.035 20.8439 15.0262 20.2047 18.0814C19.568 16.2224 17.9467 15.2794 19.0345 13.6787C20.2716 11.8583 19.1888 10.4692 19.1888 9.81329Z"
          fill="#FCC707" stroke="#22093A" stroke-linecap="round" stroke-linejoin="round"/>
    <path d="M48.9047 37.6199C49.6519 27.9147 43.9753 23.6697 37.2016 23.0606C31.8022 22.5751 24.9397 25.083 23.4498 32.1027C22.3039 37.5014 22.6989 40.683 26.4838 42.5109C26.4838 42.5109 25.1705 46.6401 27.5716 46.7332C29.2767 46.7993 30.0769 44.5511 30.0769 44.5511C30.0769 44.5511 30.165 46.8407 31.5672 46.8989C32.9694 46.957 33.758 44.286 33.758 44.286C33.758 44.286 33.892 47.1192 35.7109 47.1946C37.5298 47.27 37.9573 45.1349 37.9573 45.1349C37.9573 45.1349 38.1261 47.2626 39.6645 47.3585C41.2109 47.4549 42.1369 46.6256 42.2479 44.3212C42.3313 42.5896 44.3681 42.4123 46.5533 41.8006C48.5938 41.2294 48.8265 38.6364 48.9047 37.6199Z"
          fill="#22093A" stroke="#22093A" stroke-linecap="round" stroke-linejoin="round"/>
    <path d="M29.744 44.0316C29.744 44.0316 28.9439 46.2798 27.2388 46.2137C24.8377 46.1206 26.151 41.9913 26.151 41.9913C22.3661 40.1635 21.971 36.9819 23.1169 31.5831C24.6069 24.5635 31.4694 22.0556 36.8687 22.5411C43.6425 23.1501 49.319 27.3951 48.5719 37.1004C48.4936 38.1168 48.261 40.7099 46.2205 41.2811C44.0353 41.8928 41.9985 42.07 41.9151 43.8017C41.8041 46.1061 40.878 46.9354 39.3317 46.839C37.7933 46.7431 37.6244 44.6154 37.6244 44.6154C37.6244 44.6154 37.197 46.7505 35.3781 46.6751C33.5592 46.5997 33.4252 43.7665 33.4252 43.7665C33.4252 43.7665 32.6365 46.4375 31.2343 46.3793C29.8321 46.3212 29.744 44.0316 29.744 44.0316Z"
          fill="#E6E7E8" stroke="#22093A" stroke-linecap="round" stroke-linejoin="round"/>
    <path d="M30.5343 41.0163C29.5114 40.6371 30.4154 36.8707 32.0927 36.9403C33.7699 37.0098 33.97 40.8991 32.9277 41.1155C32.5433 41.1953 32.1516 40.009 31.8324 39.9899C31.4877 39.9692 30.9222 41.1601 30.5343 41.0163Z"
          fill="#22093A" stroke="#22093A" stroke-linecap="round" stroke-linejoin="round"/>
    <path d="M41.6565 36.4968C41.7564 34.0875 40.4256 32.0758 38.6841 32.0036C36.9425 31.9314 35.4498 33.826 35.3499 36.2354C35.25 38.6447 36.5808 40.6564 38.3223 40.7286C40.0638 40.8008 41.5566 38.9062 41.6565 36.4968Z"
          fill="#22093A" stroke="#22093A" stroke-linecap="round" stroke-linejoin="round"/>
    <path d="M29.7861 35.9501C29.8628 34.0988 28.8403 32.5531 27.5021 32.4976C26.164 32.4421 25.0169 33.8979 24.9402 35.7492C24.8634 37.6005 25.886 39.1463 27.2242 39.2018C28.5623 39.2573 29.7093 37.8014 29.7861 35.9501Z"
          fill="#22093A" stroke="#22093A" stroke-linecap="round" stroke-linejoin="round"/>
    <path d="M26.7977 28.1734C28.2686 25.8467 30.8148 24.4198 33.5671 24.3798" stroke="white" stroke-linecap="round"
          stroke-linejoin="round"/>
    <path d="M27.5155 42.4937C27.2079 43.5531 27.2264 44.1 27.5155 44.5101" stroke="white" stroke-linecap="round"
          stroke-linejoin="round"/>
    <path d="M34.8369 44.2709C34.8369 44.8861 35.0602 45.3304 35.4574 45.3304" stroke="white" stroke-linecap="round"
          stroke-linejoin="round"/>
    <path d="M38.9648 44.2709C39.0674 44.8861 39.3408 45.5013 39.7509 45.5013" stroke="white" stroke-linecap="round"
          stroke-linejoin="round"/>
    <path d="M34.8369 32.0355C36.88 28.5836 40.5028 30.2801 41.2205 31.2152" stroke="white" stroke-linecap="round"
          stroke-linejoin="round"/>
    <path d="M25.5332 31.4545C26.1574 30.9205 26.9709 30.6616 27.7889 30.7368" stroke="white" stroke-linecap="round"
          stroke-linejoin="round"/>
    <path d="M48.1205 10.4281C46.7848 10.0042 45.8644 8.78063 45.8273 7.37981C45.8545 5.45825 47.0266 5.60335 47.4375 3.09613C48.0215 4.58517 48.9357 5.93881 48.1082 7.27933C47.167 8.80374 48.0971 9.8947 48.1205 10.4281Z"
          fill="#FCC707" stroke="#22093A" stroke-linecap="round" stroke-linejoin="round"/>
    <path d="M53.631 29.2865C53.0146 30.072 53.1517 31.2085 53.9372 31.8249C54.1472 31.9898 54.3911 32.106 54.6515 32.1654C56.0544 32.3967 57.8161 31.0751 57.0292 29.6028C56.6655 28.6224 55.576 28.1225 54.5957 28.4861C54.1926 28.6356 53.8524 28.9179 53.631 29.2865Z"
          fill="#EC6509" stroke="#22093A" stroke-linecap="round" stroke-linejoin="round"/>
    <path d="M13.1425 22.5038C13.0925 23.3208 13.7142 24.0237 14.5313 24.0738C14.7497 24.0872 14.9685 24.052 15.1717 23.9708C16.2259 23.4735 16.799 21.7614 15.5824 21.1346C14.8805 20.6425 13.9126 20.8127 13.4206 21.5146C13.2182 21.8032 13.1202 22.152 13.1425 22.5038Z"
          fill="#EC6509" stroke="#22093A" stroke-linecap="round" stroke-linejoin="round"/>
    <path d="M27.9813 5.90039C27.9312 6.71742 28.553 7.42032 29.37 7.47036C29.5885 7.48374 29.8072 7.44858 30.0104 7.36739C31.0646 6.87006 31.6377 5.158 30.4211 4.53115C29.7192 4.03914 28.7513 4.20928 28.2593 4.91119C28.057 5.19979 27.9589 5.54865 27.9813 5.90039Z"
          fill="#FCC707" stroke="#22093A" stroke-linecap="round" stroke-linejoin="round"/>
    <path d="M54.8687 52.1865C53.6853 52.2006 52.2408 52.828 51.6619 57.8346C51.145 62.3047 52.9008 62.4723 53.3541 62.4669C53.8075 62.4615 56.4705 62.6588 56.8557 57.7728C57.2409 52.8867 56.6222 52.1656 54.8687 52.1865Z"
          fill="#22093A" stroke="#22093A" stroke-linecap="round" stroke-linejoin="round"/>
    <path d="M53.5408 67.4056C54.6865 67.4056 55.6153 66.4768 55.6153 65.3311C55.6153 64.1854 54.6865 63.2566 53.5408 63.2566C52.3951 63.2566 51.4663 64.1854 51.4663 65.3311C51.4663 66.4768 52.3951 67.4056 53.5408 67.4056Z"
          fill="#22093A" stroke="#22093A" stroke-linecap="round" stroke-linejoin="round"/>
    <path d="M34.47 50.9483C38.4108 50.7068 41.8011 53.7056 42.0427 57.6463C42.0528 57.8111 42.0571 57.9761 42.0558 58.1412C42.2638 63.4597 38.9125 66.2309 35.8257 66.6502C33.0407 67.0284 29.1191 65.2995 28.703 59.6478C28.3621 55.0176 30.3291 51.5404 34.47 50.9483Z"
          fill="#22093A" stroke="#22093A" stroke-linecap="round" stroke-linejoin="round"/>
    <path d="M35.2934 55.0103C35.6838 54.7733 36.3556 55.749 36.4583 58.2124C36.5609 60.6757 36.1285 62.0206 35.7007 62.2698C35.3147 62.4946 34.7399 61.7621 34.6034 59.1479C34.4916 57.0061 34.7199 55.3584 35.2934 55.0103Z"
          fill="#22093A" stroke="#22093A" stroke-linecap="round" stroke-linejoin="round"/>
    <path d="M46.5581 51.557C40.8886 51.2985 39.0934 52.6871 39.4866 54.533C40.0775 57.3068 43.6856 56.968 43.6856 56.968C43.6856 56.968 41.1414 66.438 44.9325 66.6925C49.6591 67.0099 47.5444 56.8019 47.5444 56.8019C47.5444 56.8019 53.0521 57.2458 52.9171 54.9271C52.8036 52.9787 50.3577 51.7303 46.5581 51.557Z"
          fill="#22093A" stroke="#22093A" stroke-linecap="round" stroke-linejoin="round"/>
    <path d="M26.3086 51.8516C24.6489 51.947 23.7838 53.8463 23.8669 57.9615C23.3886 57.9603 22.875 57.9863 22.3384 58.0276C22.1917 54.4504 21.5065 52.5834 19.6237 52.6917C17.8155 52.7957 16.9472 55.0327 17.2243 59.9528C17.5015 64.8729 18.3547 67.7294 20.7236 67.4293C21.8832 67.2824 22.235 65.26 22.3345 62.5594C22.5999 62.5363 22.8759 62.5038 23.1725 62.4529C23.5491 62.3883 23.8919 62.312 24.2151 62.2283C24.6744 65.199 25.5979 66.8186 27.4085 66.5892C28.9661 66.3919 29.067 62.8131 29.0554 58.7483C29.0424 54.1555 28.4488 51.7285 26.3086 51.8516Z"
          fill="#22093A" stroke="#22093A" stroke-linecap="round" stroke-linejoin="round"/>
    <path d="M54.181 51.8422C52.9975 51.8563 51.5531 52.4837 50.9742 57.4903C50.4573 61.9604 52.213 62.128 52.6664 62.1227C53.1198 62.1173 55.7827 62.3145 56.1679 57.4285C56.5532 52.5425 55.9345 51.8213 54.181 51.8422Z"
          fill="#E9022C" stroke="#22093A" stroke-linecap="round" stroke-linejoin="round"/>
    <path d="M52.8531 67.0615C53.9988 67.0615 54.9276 66.1327 54.9276 64.987C54.9276 63.8413 53.9988 62.9125 52.8531 62.9125C51.7073 62.9125 50.7786 63.8413 50.7786 64.987C50.7786 66.1327 51.7073 67.0615 52.8531 67.0615Z"
          fill="#E9022C" stroke="#22093A" stroke-linecap="round" stroke-linejoin="round"/>
    <path d="M33.7822 50.6041C37.7229 50.3626 41.1133 53.3613 41.3548 57.3021C41.3649 57.4668 41.3693 57.6319 41.368 57.7969C41.576 63.1154 38.2247 65.8867 35.1379 66.3059C32.3529 66.6842 28.4313 64.9552 28.0152 59.3036C27.6743 54.6733 29.6413 51.1962 33.7822 50.6041Z"
          fill="#E9022C" stroke="#22093A" stroke-linecap="round" stroke-linejoin="round"/>
    <path d="M34.6056 54.6661C34.996 54.4291 35.6678 55.4048 35.7704 57.8681C35.8731 60.3315 35.4407 61.6764 35.0129 61.9255C34.6269 62.1503 34.0521 61.4178 33.9156 58.8036C33.8038 56.6619 34.0321 55.0141 34.6056 54.6661Z"
          fill="#22093A" stroke="#22093A" stroke-linecap="round" stroke-linejoin="round"/>
    <path d="M45.8704 51.2128C40.2009 50.9543 38.4057 52.3429 38.7989 54.1888C39.3898 56.9626 42.9979 56.6238 42.9979 56.6238C42.9979 56.6238 40.4537 66.0937 44.2448 66.3483C48.9713 66.6657 46.8567 56.4576 46.8567 56.4576C46.8567 56.4576 52.3644 56.9016 52.2293 54.5828C52.1159 52.6344 49.67 51.386 45.8704 51.2128Z"
          fill="#E9022C" stroke="#22093A" stroke-linecap="round" stroke-linejoin="round"/>
    <path d="M25.6208 51.5074C23.9611 51.6028 23.096 53.5021 23.1791 57.6173C22.7008 57.6161 22.1872 57.6421 21.6505 57.6834C21.5039 54.1062 20.8187 52.2391 18.9359 52.3475C17.1277 52.4514 16.2594 54.6885 16.5365 59.6086C16.8136 64.5287 17.6669 67.3851 20.0358 67.085C21.1954 66.9381 21.5472 64.9158 21.6467 62.2152C21.9121 62.1921 22.1881 62.1596 22.4847 62.1087C22.8613 62.044 23.2041 61.9677 23.5273 61.8841C23.9866 64.8548 24.9101 66.4743 26.7207 66.2449C28.2783 66.0476 28.3792 62.4689 28.3676 58.404C28.3546 53.8112 27.761 51.3843 25.6208 51.5074Z"
          fill="#E9022C" stroke="#22093A" stroke-linecap="round" stroke-linejoin="round"/>
    <path d="M18.9241 53.8097C18.1487 54.1361 17.5366 56.2304 17.8631 59.3048" stroke="white" stroke-linecap="round"
          stroke-linejoin="round"/>
    <path d="M24.5962 54.9758C24.4726 55.9412 24.4726 56.9183 24.5962 57.8837" stroke="white" stroke-linecap="round"
          stroke-linejoin="round"/>
    <path d="M29.9419 60.0531C29.7379 61.9638 31.372 64.3763 34.6773 64.6778" stroke="white" stroke-linecap="round"
          stroke-linejoin="round"/>
    <path d="M30.1052 54.6317C30.4821 53.8474 31.0785 53.1893 31.8221 52.7373" stroke="white" stroke-linecap="round"
          stroke-linejoin="round"/>
    <path d="M52.5692 64.2155C52.1028 64.4647 51.9268 65.0448 52.176 65.5112C52.1929 65.5428 52.2115 65.5734 52.2318 65.6029"
          stroke="white" stroke-linecap="round" stroke-linejoin="round"/>
    <path d="M54.9052 55.9731C54.8673 57.5361 54.6684 59.1521 54.2667 59.6489" stroke="white" stroke-linecap="round"
          stroke-linejoin="round"/>
    <path d="M54.7933 53.3608C54.85 53.7826 54.8849 54.2069 54.8977 54.6322" stroke="white" stroke-linecap="round"
          stroke-linejoin="round"/>
    <path d="M43.7347 59.6489C43.3266 62.1227 43.3049 63.6711 44.3359 64.6778" stroke="white" stroke-linecap="round"
          stroke-linejoin="round"/>
</svg>
