<svg width="15" height="15" viewBox="0 0 15 15" fill="none" xmlns="http://www.w3.org/2000/svg">
<path fill-rule="evenodd" clip-rule="evenodd" d="M7.49979 0.876953C3.8421 0.876953 0.876953 3.8421 0.876953 7.49978C0.876953 11.1575 3.8421 14.1227 7.49979 14.1227C11.1575 14.1227 14.1226 11.1575 14.1226 7.49978C14.1226 3.8421 11.1575 0.876953 7.49979 0.876953ZM1.82696 7.49978C1.82696 4.36677 4.36677 1.82695 7.49979 1.82695C10.6328 1.82695 13.1726 4.36677 13.1726 7.49978C13.1726 10.6328 10.6328 13.1727 7.49979 13.1727C4.36677 13.1727 1.82696 10.6328 1.82696 7.49978ZM5.03735 9.21401C4.87937 8.98752 4.5677 8.93199 4.34121 9.08997C4.11472 9.24795 4.05919 9.55962 4.21717 9.78611C4.93914 10.8212 6.14021 11.5001 7.49992 11.5001C8.85962 11.5001 10.0607 10.8212 10.7827 9.78611C10.9407 9.55962 10.8851 9.24795 10.6586 9.08997C10.4322 8.93199 10.1205 8.98752 9.96248 9.21401C9.41951 9.99244 8.51895 10.5001 7.49992 10.5001C6.48088 10.5001 5.58032 9.99244 5.03735 9.21401ZM5.37491 6.85004C5.85816 6.85004 6.24991 6.45821 6.24991 5.97504C6.24991 5.49186 5.85816 5.10004 5.37491 5.10004C4.89167 5.10004 4.49991 5.49186 4.49991 5.97504C4.49991 6.45821 4.89167 6.85004 5.37491 6.85004ZM10.4999 5.97504C10.4999 6.45821 10.1082 6.85004 9.62491 6.85004C9.14167 6.85004 8.74991 6.45821 8.74991 5.97504C8.74991 5.49186 9.14167 5.10004 9.62491 5.10004C10.1082 5.10004 10.4999 5.49186 10.4999 5.97504Z" fill="white"/>
</svg>
