<svg width="15" height="15" viewBox="0 0 15 15" fill="none" xmlns="http://www.w3.org/2000/svg">
<path fill-rule="evenodd" clip-rule="evenodd" d="M7.4999 1.7999C4.35188 1.7999 1.7999 4.35188 1.7999 7.4999C1.7999 10.6479 4.35188 13.1999 7.4999 13.1999C10.6479 13.1999 13.1999 10.6479 13.1999 7.4999C13.1999 4.35188 10.6479 1.7999 7.4999 1.7999ZM0.899902 7.4999C0.899902 3.85482 3.85482 0.899902 7.4999 0.899902C11.1449 0.899902 14.0999 3.85482 14.0999 7.4999C14.0999 11.145 11.1449 14.0999 7.4999 14.0999C3.85482 14.0999 0.899902 11.145 0.899902 7.4999Z" fill="white"/>
<path fill-rule="evenodd" clip-rule="evenodd" d="M13.5 7.9001H1.5V7.1001H13.5V7.9001Z" fill="white"/>
<path fill-rule="evenodd" clip-rule="evenodd" d="M7.09973 13.5002V1.50024H7.89973V13.5002H7.09973ZM10.3748 7.50022C10.3748 5.32748 9.59346 3.17802 8.06165 1.7568L8.53775 1.24365C10.2394 2.82242 11.0748 5.17297 11.0748 7.50022C11.0748 9.82748 10.2394 12.178 8.53775 13.7568L8.06165 13.2436C9.59346 11.8224 10.3748 9.67297 10.3748 7.50022ZM3.99951 7.50024C3.99951 5.17635 4.80768 2.82702 6.4575 1.24743L6.94159 1.75305C5.45802 3.17347 4.69951 5.32413 4.69951 7.50024C4.69952 9.67635 5.45804 11.827 6.94161 13.2474L6.45751 13.753C4.8077 12.1734 3.99952 9.82414 3.99951 7.50024Z" fill="white"/>
<path fill-rule="evenodd" clip-rule="evenodd" d="M7.49978 3.95801C9.6691 3.95801 11.8751 4.35915 13.3704 5.19448C13.5392 5.28875 13.5996 5.50197 13.5053 5.67073C13.4111 5.83948 13.1978 5.89987 13.0291 5.8056C11.6792 5.05155 9.60781 4.65801 7.49978 4.65801C5.39174 4.65801 3.32034 5.05155 1.97046 5.8056C1.8017 5.89987 1.58848 5.83948 1.49421 5.67073C1.39995 5.50197 1.46033 5.28875 1.62909 5.19448C3.12448 4.35915 5.33045 3.95801 7.49978 3.95801ZM7.49978 10.85C9.6691 10.85 11.8751 10.4488 13.3704 9.6135C13.5392 9.51924 13.5996 9.30601 13.5053 9.13726C13.4111 8.9685 13.1978 8.90812 13.0291 9.00238C11.6792 9.75643 9.60781 10.15 7.49978 10.15C5.39174 10.15 3.32034 9.75643 1.97046 9.00239C1.8017 8.90812 1.58848 8.9685 1.49421 9.13726C1.39995 9.30601 1.46033 9.51924 1.62909 9.6135C3.12448 10.4488 5.33045 10.85 7.49978 10.85Z" fill="white"/>
</svg>
