<svg width="397" height="39" viewBox="0 0 397 39" fill="none" xmlns="http://www.w3.org/2000/svg">
<path d="M20.1001 38.8334C19.6742 38.8334 19.2482 38.7908 18.8223 38.7056C18.3964 38.7056 17.9279 38.663 17.4168 38.5778C16.3945 38.2371 15.5427 37.513 14.8612 36.4056C14.5205 35.7241 14.3501 34.7871 14.3501 33.5945C14.3501 32.4019 14.7334 30.4426 15.5001 27.7167C16.2668 24.9908 17.5019 20.9445 19.2056 15.5778C17.3316 16.2593 15.1593 17.0686 12.689 18.0056C10.3038 18.9426 7.83342 19.8797 5.27787 20.8167C4.34083 21.1575 3.40379 21.1149 2.46675 20.6889C1.44453 20.1778 0.720458 19.4112 0.294532 18.3889C-0.0462084 17.4519 0.0389768 16.5149 0.550088 15.5778C0.976014 14.5556 1.70009 13.8315 2.72231 13.4056C6.38527 12.0426 9.79268 10.7649 12.9445 9.57227C16.1816 8.37968 18.8223 7.40005 20.8668 6.63339C22.9112 5.86672 23.9334 5.48339 23.9334 5.48339C24.7853 5.14264 25.5945 5.10005 26.3612 5.35561C27.4686 5.61116 28.2779 6.25005 28.789 7.27227C29.2149 8.03894 29.3427 8.72042 29.1723 9.31672C29.0871 9.91302 28.9593 10.5519 28.789 11.2334C28.6186 11.5741 28.4908 11.9575 28.4056 12.3834C28.3205 12.7241 28.1927 13.1501 28.0223 13.6612C27.426 15.1093 26.7871 16.8982 26.1056 19.0278C25.5093 21.0723 24.8705 23.1593 24.189 25.2889C23.7631 26.4815 23.4223 27.5038 23.1668 28.3556C22.9112 29.2075 22.6982 29.9741 22.5279 30.6556C24.1464 30.3149 26.489 29.3352 29.5556 27.7167C32.1964 26.2686 35.0075 24.6075 37.989 22.7334C41.0556 20.7741 44.1649 18.7297 47.3168 16.6001C47.9982 16.1741 48.6797 15.7482 49.3612 15.3223C50.1279 14.8963 50.8094 14.4278 51.4056 13.9167C52.3427 13.3204 53.3223 13.1501 54.3445 13.4056C55.4519 13.576 56.3038 14.1297 56.9001 15.0667C57.4964 15.9186 57.6668 16.8556 57.4112 17.8778C57.2408 18.9001 56.6871 19.7093 55.7501 20.3056C55.0686 20.8167 54.3445 21.3278 53.5779 21.8389C52.8964 22.2649 52.1723 22.7334 51.4056 23.2445C48.1686 25.3741 45.0168 27.4186 41.9501 29.3778C38.8834 31.3371 35.9871 33.0408 33.2612 34.4889C27.7242 37.3852 23.3371 38.8334 20.1001 38.8334Z" fill="white"/>
<path d="M83.433 31.2945C82.4107 31.2945 81.5589 30.9964 80.8774 30.4001C79.5144 29.2926 79.1311 27.8871 79.7274 26.1834C79.7274 26.0982 80.0255 25.076 80.6218 23.1167C81.3033 21.1575 82.07 18.9426 82.9218 16.4723C83.3478 15.0241 83.7311 13.7889 84.0718 12.7667C84.4126 11.6593 84.7107 10.6797 84.9663 9.82783C82.6663 10.6797 79.8552 11.7445 76.533 13.0223C73.2107 14.2149 69.7181 15.4926 66.0552 16.8556C62.4774 18.2186 58.9848 19.5389 55.5774 20.8167C54.6404 21.1575 53.7033 21.1149 52.7663 20.6889C51.7441 20.1778 51.02 19.4112 50.5941 18.3889C50.2533 17.4519 50.3385 16.5149 50.8496 15.5778C51.2755 14.5556 51.9996 13.8315 53.0218 13.4056C56.8552 12.0426 60.8163 10.6371 64.9052 9.18894C68.9941 7.65561 72.7848 6.25005 76.2774 4.97227C79.77 3.60931 82.6237 2.5019 84.8385 1.65005C87.0533 0.7982 88.1607 0.372272 88.1607 0.372272C88.5867 0.287088 89.0126 0.244496 89.4385 0.244496C89.8644 0.159312 90.2478 0.201904 90.5885 0.372272C91.7811 0.542643 92.6329 1.22413 93.1441 2.41672C93.57 3.0982 93.7404 3.99265 93.6552 5.10005C93.6552 6.12227 93.4422 7.61301 93.0163 9.57227C92.7607 10.6797 92.42 11.9149 91.9941 13.2778C91.6533 14.5556 91.1848 16.0464 90.5885 17.7501C90.5033 18.0908 90.4181 18.3889 90.3329 18.6445C90.2478 18.9001 90.1626 19.1982 90.0774 19.5389C93.4848 17.6649 97.6589 15.7056 102.6 13.6612C103.537 13.2352 104.474 13.2352 105.411 13.6612C106.433 14.0019 107.114 14.6408 107.455 15.5778C107.966 16.5149 108.009 17.4945 107.583 18.5167C107.157 19.5389 106.476 20.263 105.539 20.6889C101.705 22.3926 98.2552 24.0112 95.1885 25.5445C92.207 27.0778 89.8218 28.313 88.0329 29.2501C86.2441 30.1871 85.3496 30.6556 85.3496 30.6556C84.8385 31.0815 84.1996 31.2945 83.433 31.2945Z" fill="white"/>
<path d="M149.324 30.0167C148.728 30.0167 148.174 29.9315 147.663 29.7612C146.045 29.4204 144.895 28.4408 144.213 26.8223C143.702 25.3741 143.83 23.7556 144.597 21.9667C145.448 20.1778 146.556 18.176 147.919 15.9612C148.43 15.1945 148.898 14.4278 149.324 13.6612C149.835 12.8093 150.261 12.0426 150.602 11.3612C150.772 11.1056 150.9 10.8926 150.985 10.7223C151.071 10.4667 151.156 10.2538 151.241 10.0834C148.685 9.65746 145.704 9.57228 142.297 9.82783C138.974 9.9982 135.226 10.6371 131.052 11.7445C127.389 12.6815 123.428 13.9167 119.169 15.4501C114.995 16.8982 110.565 18.6445 105.88 20.6889C104.943 21.0297 104.006 21.0297 103.069 20.6889C102.132 20.3482 101.45 19.7093 101.024 18.7723C100.513 17.8352 100.471 16.8556 100.897 15.8334C101.322 14.726 102.004 14.0019 102.941 13.6612C107.711 11.5315 112.269 9.70005 116.613 8.16672C121.043 6.5482 125.217 5.27042 129.135 4.33339C139.613 1.69264 148.174 1.26672 154.819 3.05561C156.778 3.56672 158.141 4.75931 158.908 6.63339C159.674 8.50746 159.504 10.5945 158.397 12.8945C157.289 15.1945 155.969 17.5797 154.435 20.0501C154.35 20.2204 154.222 20.4334 154.052 20.6889C153.882 20.9445 153.711 21.2426 153.541 21.5834C155.5 21.1575 158.397 20.3056 162.23 19.0278C166.063 17.7501 171.345 15.876 178.074 13.4056C179.011 13.0649 179.948 13.1501 180.885 13.6612C181.908 14.0871 182.589 14.8112 182.93 15.8334C183.356 16.7704 183.356 17.7501 182.93 18.7723C182.504 19.7093 181.737 20.3908 180.63 20.8167C176.711 22.1797 173.134 23.4149 169.897 24.5223C166.66 25.6297 163.763 26.5667 161.208 27.3334C157.8 28.3556 155.202 29.0797 153.413 29.5056C151.624 29.8463 150.261 30.0167 149.324 30.0167Z" fill="white"/>
<path d="M190.452 38.5778C189.856 38.5778 189.259 38.4926 188.663 38.3223C188.067 38.2371 187.47 38.1519 186.874 38.0667C185.341 37.6408 184.276 36.7464 183.68 35.3834C182.913 33.6797 182.913 31.6352 183.68 29.2501C184.531 26.7797 185.894 23.6278 187.768 19.7945C188.109 19.113 188.45 18.3463 188.791 17.4945C189.217 16.6426 189.6 15.8334 189.941 15.0667C188.833 15.4926 187.641 16.2167 186.363 17.2389C185.17 18.176 183.935 19.1556 182.657 20.1778C181.806 20.7741 180.868 21.0297 179.846 20.9445C178.739 20.7741 177.844 20.3056 177.163 19.5389C176.567 18.6871 176.354 17.7501 176.524 16.7278C176.609 15.7056 177.035 14.8112 177.802 14.0445C178.994 13.1926 180.23 12.2556 181.507 11.2334C182.87 10.2112 184.233 9.35931 185.596 8.67783C189.089 6.88894 192.283 6.42042 195.18 7.27227C196.543 7.52783 197.565 8.37968 198.246 9.82783C198.928 11.1908 198.885 12.8945 198.118 14.9389C197.437 16.9834 196.244 19.7519 194.541 23.2445C194.115 24.2667 193.646 25.2889 193.135 26.3112C192.709 27.3334 192.283 28.313 191.857 29.2501C191.772 29.5908 191.644 29.8889 191.474 30.1445C191.389 30.4001 191.304 30.6556 191.218 30.9112C193.007 30.6556 195.606 29.7612 199.013 28.2278C202.506 26.6093 207.191 23.4575 213.068 18.7723C216.22 16.3019 219.074 13.9167 221.63 11.6167C224.185 9.23153 226.23 7.27227 227.763 5.73894C229.296 4.20561 230.063 3.43894 230.063 3.43894C231.085 2.24635 232.32 1.86302 233.768 2.28894C234.45 2.37413 235.004 2.67227 235.43 3.18338C235.856 3.60931 236.196 4.03524 236.452 4.46116C237.048 5.65376 237.091 7.05931 236.58 8.67783C236.154 10.2112 235.217 12.7241 233.768 16.2167C233.257 17.3241 232.746 18.4315 232.235 19.5389C231.809 20.6463 231.383 21.6686 230.957 22.6056C230.872 22.9464 230.787 23.2445 230.702 23.5001C230.702 23.6704 230.659 23.8408 230.574 24.0112C232.193 23.7556 233.896 23.0741 235.685 21.9667C237.559 20.7741 239.348 19.4538 241.052 18.0056C242.841 16.5575 244.331 15.3223 245.524 14.3001C246.376 13.5334 247.313 13.1926 248.335 13.2778C249.357 13.363 250.252 13.7889 251.018 14.5556C251.7 15.4075 251.998 16.3445 251.913 17.3667C251.913 18.3889 251.487 19.2834 250.635 20.0501C247.994 22.3501 245.268 24.5223 242.457 26.5667C239.731 28.6112 236.963 30.1445 234.152 31.1667C231.426 32.1038 228.657 32.2315 225.846 31.5501C224.483 30.9538 223.504 30.1019 222.907 28.9945C222.396 27.8019 222.226 26.4815 222.396 25.0334C222.652 23.5852 223.163 21.7963 223.93 19.6667C222.993 20.5186 222.013 21.3278 220.991 22.0945C220.054 22.8612 219.031 23.713 217.924 24.6501C206.168 33.9352 197.011 38.5778 190.452 38.5778Z" fill="white"/>
<path d="M258.97 38.5778C258.373 38.5778 257.777 38.4926 257.181 38.3223C256.584 38.2371 255.988 38.1519 255.392 38.0667C253.859 37.6408 252.794 36.7464 252.197 35.3834C251.431 33.6797 251.431 31.6352 252.197 29.2501C253.049 26.7797 254.412 23.6278 256.286 19.7945C256.627 19.113 256.968 18.3463 257.309 17.4945C257.734 16.6426 258.118 15.8334 258.459 15.0667C257.351 15.4926 256.159 16.2167 254.881 17.2389C253.688 18.176 252.453 19.1556 251.175 20.1778C250.323 20.7741 249.386 21.0297 248.364 20.9445C247.257 20.7741 246.362 20.3056 245.681 19.5389C245.084 18.6871 244.872 17.7501 245.042 16.7278C245.127 15.7056 245.553 14.8112 246.32 14.0445C247.512 13.1926 248.747 12.2556 250.025 11.2334C251.388 10.2112 252.751 9.35931 254.114 8.67783C257.607 6.88894 260.801 6.42042 263.697 7.27227C265.06 7.52783 266.083 8.37968 266.764 9.82783C267.446 11.1908 267.403 12.8945 266.636 14.9389C265.955 16.9834 264.762 19.7519 263.059 23.2445C262.633 24.2667 262.164 25.2889 261.653 26.3112C261.227 27.3334 260.801 28.313 260.375 29.2501C260.29 29.5908 260.162 29.8889 259.992 30.1445C259.907 30.4001 259.822 30.6556 259.736 30.9112C261.525 30.6556 264.123 29.7612 267.531 28.2278C271.023 26.6093 275.709 23.4575 281.586 18.7723C284.738 16.3019 287.592 13.9167 290.147 11.6167C292.703 9.23153 294.747 7.27227 296.281 5.73894C297.814 4.20561 298.581 3.43894 298.581 3.43894C299.603 2.24635 300.838 1.86302 302.286 2.28894C302.968 2.37413 303.522 2.67227 303.947 3.18338C304.373 3.60931 304.714 4.03524 304.97 4.46116C305.566 5.65376 305.609 7.05931 305.097 8.67783C304.672 10.2112 303.734 12.7241 302.286 16.2167C301.775 17.3241 301.264 18.4315 300.753 19.5389C300.327 20.6463 299.901 21.6686 299.475 22.6056C299.39 22.9464 299.305 23.2445 299.22 23.5001C299.22 23.6704 299.177 23.8408 299.092 24.0112C300.71 23.7556 302.414 23.0741 304.203 21.9667C306.077 20.7741 307.866 19.4538 309.57 18.0056C311.359 16.5575 312.849 15.3223 314.042 14.3001C314.894 13.5334 315.831 13.1926 316.853 13.2778C317.875 13.363 318.77 13.7889 319.536 14.5556C320.218 15.4075 320.516 16.3445 320.431 17.3667C320.431 18.3889 320.005 19.2834 319.153 20.0501C316.512 22.3501 313.786 24.5223 310.975 26.5667C308.249 28.6112 305.481 30.1445 302.67 31.1667C299.944 32.1038 297.175 32.2315 294.364 31.5501C293.001 30.9538 292.022 30.1019 291.425 28.9945C290.914 27.8019 290.744 26.4815 290.914 25.0334C291.17 23.5852 291.681 21.7963 292.447 19.6667C291.51 20.5186 290.531 21.3278 289.509 22.0945C288.572 22.8612 287.549 23.713 286.442 24.6501C274.686 33.9352 265.529 38.5778 258.97 38.5778Z" fill="white"/>
<path d="M362.115 30.0167C361.519 30.0167 360.965 29.9315 360.454 29.7612C358.836 29.4204 357.686 28.4408 357.004 26.8223C356.493 25.3741 356.621 23.7556 357.388 21.9667C358.239 20.1778 359.347 18.176 360.71 15.9612C361.221 15.1945 361.689 14.4278 362.115 13.6612C362.626 12.8093 363.052 12.0426 363.393 11.3612C363.563 11.1056 363.691 10.8926 363.776 10.7223C363.862 10.4667 363.947 10.2538 364.032 10.0834C361.476 9.65746 358.495 9.57228 355.088 9.82783C351.765 9.9982 348.017 10.6371 343.843 11.7445C340.18 12.6815 336.219 13.9167 331.96 15.4501C327.786 16.8982 323.356 18.6445 318.671 20.6889C317.734 21.0297 316.797 21.0297 315.86 20.6889C314.923 20.3482 314.241 19.7093 313.815 18.7723C313.304 17.8352 313.262 16.8556 313.688 15.8334C314.113 14.726 314.795 14.0019 315.732 13.6612C320.502 11.5315 325.06 9.70005 329.404 8.16672C333.834 6.5482 338.008 5.27042 341.926 4.33339C352.404 1.69264 360.965 1.26672 367.61 3.05561C369.569 3.56672 370.932 4.75931 371.699 6.63339C372.465 8.50746 372.295 10.5945 371.188 12.8945C370.08 15.1945 368.76 17.5797 367.226 20.0501C367.141 20.2204 367.013 20.4334 366.843 20.6889C366.673 20.9445 366.502 21.2426 366.332 21.5834C368.291 21.1575 371.188 20.3056 375.021 19.0278C378.854 17.7501 384.136 15.876 390.865 13.4056C391.802 13.0649 392.739 13.1501 393.676 13.6612C394.699 14.0871 395.38 14.8112 395.721 15.8334C396.147 16.7704 396.147 17.7501 395.721 18.7723C395.295 19.7093 394.528 20.3908 393.421 20.8167C389.502 22.1797 385.925 23.4149 382.688 24.5223C379.45 25.6297 376.554 26.5667 373.999 27.3334C370.591 28.3556 367.993 29.0797 366.204 29.5056C364.415 29.8463 363.052 30.0167 362.115 30.0167Z" fill="white"/>
</svg>
